PathFileType	4	(X/Y/Z)	C:/Users/opensim2020/Desktop/walking_exp_matlab/subject06_walking12_straigt_02.trc																																																																																																																																														
DataRate	CameraRate	NumFrames	NumMarkers	Units	OrigDataRate	OrigDataStartFrame	OrigNumFrames																																																																																																																																										
100	100	4	48	mm	100	1493	215																																																																																																																																										
Frame#	Time	LFHD			RFHD			LBHD			RBHD			C7			T10			CLAV			STRN			RBAK			LSHO			LUPA			LELB			LFRM			LWRA			LWRB			LFIN			RSHO			RUPA			RELB			RFRM			RWRA			RWRB			RFIN			LASI			RASI			LPSI			RPSI			LTHI			LKNE			LTIB			LANK			LHEE			LTOE			RTHI			RKNE			RTIB			RANK			RHEE			RTOE			*39			*40			*41			*42			*43			*44			*45			*46			*47		
		X1	Y1	Z1	X2	Y2	Z2	X3	Y3	Z3	X4	Y4	Z4	X5	Y5	Z5	X6	Y6	Z6	X7	Y7	Z7	X8	Y8	Z8	X9	Y9	Z9	X10	Y10	Z10	X11	Y11	Z11	X12	Y12	Z12	X13	Y13	Z13	X14	Y14	Z14	X15	Y15	Z15	X16	Y16	Z16	X17	Y17	Z17	X18	Y18	Z18	X19	Y19	Z19	X20	Y20	Z20	X21	Y21	Z21	X22	Y22	Z22	X23	Y23	Z23	X24	Y24	Z24	X25	Y25	Z25	X26	Y26	Z26	X27	Y27	Z27	X28	Y28	Z28	X29	Y29	Z29	X30	Y30	Z30	X31	Y31	Z31	X32	Y32	Z32	X33	Y33	Z33	X34	Y34	Z34	X35	Y35	Z35	X36	Y36	Z36	X37	Y37	Z37	X38	Y38	Z38	X39	Y39	Z39	X40	Y40	Z40	X41	Y41	Z41	X42	Y42	Z42	X43	Y43	Z43	X44	Y44	Z44	X45	Y45	Z45	X46	Y46	Z46	X47	Y47	Z47	X48	Y48	Z48
																																																																																																																																																	
54	0.53	-756.97449	1682.44568	-1496.40833	-770.65088	1667.37195	-1366.38049	-886.58887	1621.2179	-1512.79028	-898.80353	1612.14575	-1385.22131	-883.40143	1457.62488	-1459.06677	-891.97253	1128.87488	-1449.05225	-766.05707	1390.39795	-1447.70117	-712.36407	1217.12451	-1452.28979	-947.64874	1281.15576	-1388.77368	-815.37115	1419.18103	-1613.68323	-784.63947	1221.23303	-1692.41797	-768.16693	1110.82922	-1709.6106	-708.23853	973.67505	-1734.35571	-626.85144	873.97992	-1690.88232	-680.54059	857.65466	-1734.8269	-619.01349	791.16534	-1736.60657	-832.66089	1416.15271	-1292.16211	-874.44464	1215.29346	-1212.39478	-864.72162	1093.78943	-1201.48499	-859.15375	973.75244	-1182.11646	-809.12225	828.01477	-1204.70703	-866.38019	836.1322	-1170.45923	-838.32208	756.50507	-1163.4585	-712.04718	972.45746	-1546.04724	-723.49249	979.69897	-1327.76477	-871.35638	1000.66003	-1522.94434	-871.77014	1000.11749	-1355.17871	-794.57642	660.08124	-1604.02844	-810.53076	496.72141	-1582.60095	-863.3548	244.16844	-1574.54785	-875.68805	72.77512	-1527.13416	-916.44421	59.54687	-1482.40662	-730.68268	39.87445	-1522.91699	-712.30469	647.81415	-1265.65955	-669.82141	528.62811	-1285.1261	-818.7981	318.63544	-1290.37085	-931.2002	171.12784	-1332.59253	-973.5976	165.26282	-1382.02795	-822.67413	65.11916	-1313.97046	-865.2688	1714.29382	-1447.82446	NaN	NaN	NaN	NaN	NaN	NaN	NaN	NaN	NaN	NaN	NaN	NaN	NaN	NaN	NaN	NaN	NaN	NaN	NaN	NaN	NaN	NaN	NaN	NaN
55	0.54	-745.27173	1682.20691	-1496.82776	-759.04437	1667.18933	-1366.86865	-875.44373	1621.44507	-1513.65125	-887.35626	1612.28992	-1385.68384	-872.18597	1457.72852	-1459.59326	-881.77893	1129.10522	-1449.64319	-754.96246	1390.21863	-1448.19568	-701.66632	1216.83264	-1453.02771	-936.85516	1281.49976	-1389.64685	-804.19153	1419.36438	-1614.04688	-771.04089	1222.146	-1693.29187	-752.44324	1112.0116	-1710.94324	-688.25885	976.8739	-1735.76172	-603.0022	880.44189	-1692.31299	-656.33118	861.9165	-1735.69092	-592.73419	797.78473	-1737.77783	-821.71002	1416.15967	-1292.69409	-866.10168	1215.8219	-1213.349	-858.17963	1094.16748	-1202.47083	-854.77417	974.07648	-1183.11877	-807.15442	827.48828	-1205.35327	-864.52191	836.41052	-1171.63342	-838.32727	756.25201	-1164.90845	-703.08002	971.69379	-1546.99841	-712.97925	980.05371	-1328.7666	-862.04211	1000.5777	-1522.64697	-861.22522	1000.7746	-1354.84631	-787.86206	659.58118	-1603.68164	-805.02466	496.26212	-1582.12122	-860.88007	244.3923	-1573.88269	-875.30255	73.02966	-1526.56238	-916.14545	60.01691	-1482.14844	-730.526	39.8352	-1523.04407	-697.94287	649.52686	-1266.19897	-654.73096	530.94305	-1286.50513	-796.03674	314.11755	-1290.93799	-901.27814	161.4846	-1333.40051	-943.70959	153.4026	-1382.71423	-787.56897	61.68196	-1315.29199	-853.5033	1714.3208	-1448.29675	NaN	NaN	NaN	NaN	NaN	NaN	NaN	NaN	NaN	NaN	NaN	NaN	NaN	NaN	NaN	NaN	NaN	NaN	NaN	NaN	NaN	NaN	NaN	NaN
56	0.55	-733.64575	1681.80884	-1497.32764	-747.44037	1666.83704	-1367.2749	-863.88812	1621.27844	-1514.03516	-875.82513	1612.18872	-1386.09668	-860.92346	1457.55884	-1460.01843	-871.51782	1129.0697	-1450.07788	-743.90906	1389.8623	-1448.61816	-691.25104	1216.28137	-1453.66919	-925.99731	1281.58057	-1390.52881	-792.98309	1419.32678	-1614.4043	-757.71033	1222.79626	-1694.08069	-737.10425	1113.01282	-1712.18799	-668.56897	979.91974	-1736.86816	-579.55939	887.18341	-1693.4884	-632.45154	866.1004	-1736.20105	-566.43304	804.57831	-1738.38367	-810.81256	1415.88501	-1293.13452	-857.70819	1216.19531	-1214.16687	-851.66333	1094.45813	-1203.32996	-850.30566	974.28369	-1184.01782	-804.80365	826.88794	-1205.89026	-862.48474	836.83496	-1172.69226	-837.48035	756.07715	-1165.8855	-694.15076	970.70959	-1547.87854	-703.01331	980.03412	-1330.07324	-852.69849	1000.34235	-1522.40906	-850.71448	1001.0976	-1354.58032	-780.98853	658.80487	-1603.22266	-799.47449	495.63846	-1581.66406	-858.3927	244.40927	-1573.28833	-874.86432	73.17626	-1526.06592	-915.96405	60.52154	-1481.68469	-730.76025	39.91946	-1523.3623	-684.06683	651.02802	-1266.63696	-640.27258	532.98798	-1287.5426	-773.19983	309.55194	-1291.59619	-870.91559	151.81879	-1333.8269	-913.03687	141.44763	-1383.29883	-751.55688	58.51487	-1316.52173	-841.75537	1714.12512	-1448.70044	NaN	NaN	NaN	NaN	NaN	NaN	NaN	NaN	NaN	NaN	NaN	NaN	NaN	NaN	NaN	NaN	NaN	NaN	NaN	NaN	NaN	NaN	NaN	NaN
57	0.56	-721.84027	1681.18298	-1497.61902	-735.70386	1666.28027	-1367.65552	-851.87018	1620.78125	-1513.94702	-864.30823	1611.88184	-1386.46533	-849.64478	1457.21558	-1460.40125	-861.22015	1128.83032	-1450.44556	-732.73682	1389.30469	-1449.02905	-680.71069	1215.52405	-1454.25671	-915.13849	1281.38879	-1391.25659	-781.84503	1419.09924	-1614.71411	-744.56592	1223.22705	-1694.79492	-722.13501	1113.80188	-1713.36462	-649.38123	982.97278	-1737.91174	-556.45068	893.99207	-1694.24353	-608.96259	870.49243	-1736.50195	-540.57751	811.59705	-1738.6947	-799.77393	1415.40369	-1293.57214	-849.15265	1216.31555	-1214.90637	-845.07452	1094.54529	-1204.07629	-845.53741	974.36377	-1184.89429	-802.56195	826.25037	-1206.85034	-860.13519	837.02032	-1173.70081	-836.38251	755.79858	-1167.05383	-685.08313	969.53406	-1548.61694	-692.54816	979.94122	-1330.88965	-843.33527	999.81775	-1522.15149	-840.14429	1001.06708	-1354.34155	-774.09351	657.95416	-1602.82092	-793.81042	494.88763	-1581.24292	-855.80359	244.37521	-1572.77576	-874.42773	73.42262	-1525.74561	-915.65924	60.79752	-1481.12646	-730.13452	39.70655	-1523.07727	-670.69006	652.29907	-1266.81787	-626.34406	534.47827	-1288.50659	-750.28894	304.75409	-1291.91211	-839.99884	142.30829	-1334.38684	-881.85968	129.91887	-1383.72046	-715.64618	55.6554	-1317.58521	-829.97803	1713.72876	-1449.09741	NaN	NaN	NaN	NaN	NaN	NaN	NaN	NaN	NaN	NaN	NaN	NaN	NaN	NaN	NaN	NaN	NaN	NaN	NaN	NaN	NaN	NaN	NaN	NaN
